<svg width="150" height="48" viewBox="0 0 150 48" fill="none" xmlns="http://www.w3.org/2000/svg">
<g id="transparent cognitik logo for light background">
<g id="Group 1127">
<g id="Group 1126">
<path id="Vector" d="M145.241 23.6179V24.5042L136.388 34.6282H130.26V34.2005L139.126 24.0632L130.26 13.9216V13.4321H136.334L145.241 23.6179Z" fill="#FE4500"/>
<path id="Vector_2" d="M20.306 31.9341C17.7986 34.3328 15.1645 35.2764 11.9556 35.2764C5.66903 35.2764 0.437012 31.5946 0.437012 24.0985C0.437012 16.6025 5.66903 12.9207 11.9556 12.9207C15.0333 12.9207 17.4049 13.7761 19.781 16.0469L16.3956 19.5172C15.1193 18.406 13.5397 17.846 12.0416 17.846C8.43893 17.846 5.80029 20.4167 5.80029 24.0985C5.80029 28.1243 8.61544 30.2673 11.9556 30.2673C13.671 30.2673 15.3863 29.7955 16.7034 28.5124L20.306 31.9385V31.9341Z" fill="white"/>
<path id="Vector_3" d="M42.8995 24.0941C42.8995 30.1746 38.636 35.1 31.6026 35.1C24.5693 35.1 20.3511 30.1746 20.3511 24.0941C20.3511 18.0135 24.6598 13.0881 31.5619 13.0881C38.464 13.0881 42.904 18.0576 42.904 24.0941H42.8995ZM25.7098 24.0941C25.7098 27.3041 27.6877 30.3025 31.6026 30.3025C35.5176 30.3025 37.4955 27.3041 37.4955 24.0941C37.4955 20.884 35.2098 17.8415 31.6026 17.8415C27.7329 17.8415 25.7098 20.9237 25.7098 24.0941Z" fill="white"/>
<path id="Vector_4" d="M101.312 7.56316C101.312 11.6331 94.98 11.6331 94.98 7.56316C94.98 3.49327 101.312 3.49327 101.312 7.56316ZM95.4643 13.4321V34.6326H100.828V13.4321H95.4643Z" fill="white"/>
<path id="Vector_5" d="M112.785 7.56323V13.56H118.764V18.0577H112.74V27.1808C112.74 29.1959 113.885 30.1792 115.555 30.1792C116.392 30.1792 117.356 29.9234 118.148 29.5354L119.642 33.9889C118.103 34.5886 116.827 34.8443 115.202 34.8884C110.499 35.0604 107.422 32.4456 107.422 27.1808V18.0577H103.375V13.56H107.422V8.11882L112.785 7.56323Z" fill="white"/>
<path id="Vector_6" d="M128.169 7.56316C128.169 11.6331 121.837 11.6331 121.837 7.56316C121.837 3.49327 128.169 3.49327 128.169 7.56316ZM122.322 13.4321V34.6326H127.685V13.4321H122.322Z" fill="white"/>
<path id="Vector_7" d="M69.9512 23.6224V34.6284H75.2511V23.6224C75.2511 20.7034 77.6815 18.3356 80.6777 18.3356C83.6739 18.3356 86.1044 20.7034 86.1044 23.6224V34.6284H91.4043V23.6224C91.4043 17.8505 86.6022 13.1721 80.6777 13.1721C74.7532 13.1721 69.9512 17.8505 69.9512 23.6224Z" fill="white"/>
<path id="Vector_8" d="M62.4156 31.4182C65.9775 29.8308 66.9868 26.149 66.9868 23.5386C66.9868 22.52 66.8646 21.5411 66.5885 20.6107C66.5885 20.6107 66.5885 20.6019 66.584 20.5975C66.4437 20.1257 66.2627 19.6671 66.0364 19.2174C64.4206 15.7163 61.782 14.1642 60.0711 13.4983C59.9037 13.4278 59.7679 13.3837 59.6729 13.3528C58.917 13.0927 58.4192 13.0265 58.4192 13.0265C57.6362 12.881 56.8305 12.8325 56.034 12.8325C49.9692 12.8325 45.0449 16.9421 45.0449 23.5386C45.0449 30.1351 49.2631 34.1609 56.034 34.1609C58.7134 34.1609 61.5285 35.4881 61.5285 38.3984C61.5285 41.3086 59.1116 42.9401 56.034 42.9401C52.9563 42.9401 50.3629 41.141 50.3629 38.3984H45.0449C45.0449 44.0953 49.7474 47.8213 56.034 47.8213C62.3206 47.8213 66.8918 44.2232 66.8918 38.3984C66.8918 35.6998 66.0137 33.1732 62.4065 31.4182H62.4156ZM56.043 29.4031C52.9201 29.4031 50.372 27.2205 50.372 23.5342C50.372 19.8479 52.9201 17.5815 56.043 17.5815C59.166 17.5815 61.6688 19.892 61.6688 23.5342C61.6688 27.1764 59.1207 29.4031 56.043 29.4031Z" fill="white"/>
<path id="Vector_9" d="M144.2 4.69263V21.9952L144.2 25.0851L144.2 25.0774V34.6282H149.563V4.69263H144.2Z" fill="white"/>
</g>
</g>
</g>
</svg>
